<?xml version="1.0" encoding="utf-8"?>
<!-- Generator: Adobe Illustrator 27.5.0, SVG Export Plug-In . SVG Version: 6.00 Build 0)  -->
<svg version="1.1" id="Capa_1" xmlns="http://www.w3.org/2000/svg" xmlns:xlink="http://www.w3.org/1999/xlink" x="0px" y="0px"
	 viewBox="0 0 425.2 425.2" style="enable-background:new 0 0 425.2 425.2;" xml:space="preserve">
<rect x="0.002" y="0.002" style="fill:#B089BD;" width="425.196" height="425.196"/>
<ellipse style="fill:#7C6195;" cx="281.314" cy="374.979" rx="108.311" ry="19.472"/>
<ellipse transform="matrix(0.7071 -0.7071 0.7071 0.7071 -84.8953 214.0181)" style="fill:#C1A5CF;" cx="215.895" cy="209.487" rx="156.964" ry="156.964"/>
<g>
	<g>
		<g>
			<path style="fill:#D6A182;" d="M258.927,230.433c0,0-0.281,1.891-0.771,5.199c-0.511,3.281-1.267,7.953-2.297,13.551
				c-1.037,5.6-2.324,12.121-4.066,19.131c-0.882,3.509-1.868,7.134-3.138,10.874c-0.641,1.872-1.359,3.776-2.267,5.753
				c-0.471,0.996-0.983,2.01-1.642,3.082c-0.686,1.072-1.413,2.217-2.93,3.539c-0.734,0.632-1.831,1.374-3.309,1.815
				c-1.56,0.469-3.48,0.33-4.883-0.241c-0.326-0.137-0.648-0.288-0.961-0.452c-0.332-0.168-0.521-0.32-0.78-0.493l-0.358-0.259
				l-0.176-0.133c0.014,0.016-0.485-0.409-0.286-0.242l-0.031-0.031l-0.249-0.246l-0.995-0.982
				c-0.663-0.654-1.324-1.307-1.984-1.957c-0.657-0.618-1.325-1.425-1.981-2.124c-1.311-1.448-2.612-2.885-3.897-4.304
				c-1.187-1.383-2.358-2.75-3.511-4.094c-2.319-2.678-4.485-5.3-6.551-7.78c-2.05-2.489-3.988-4.841-5.777-7.013
				c-7.113-8.709-11.77-14.586-11.77-14.586l5.752-4.854c0,0,4.974,5.546,12.558,13.754c1.903,2.042,3.964,4.254,6.145,6.594
				c2.19,2.326,4.493,4.79,6.917,7.265c1.206,1.244,2.432,2.509,3.673,3.789c1.207,1.184,2.428,2.383,3.659,3.591
				c0.639,0.604,1.168,1.21,1.9,1.819c0.697,0.608,1.396,1.219,2.097,1.831l1.052,0.918l0.263,0.229l0.033,0.029
				c0.22,0.187-0.258-0.218-0.219-0.187l-0.031-0.034c-0.022-0.022-0.046-0.042-0.07-0.061c-0.063-0.05-0.077-0.037-0.19-0.119
				c-0.102-0.066-0.212-0.12-0.327-0.159c-0.527-0.256-1.482-0.321-2.137-0.113c-0.595,0.139-0.873,0.402-0.916,0.402
				c-0.108,0.088,0.233-0.334,0.491-0.864c0.281-0.541,0.575-1.21,0.855-1.915c0.556-1.445,1.061-3.044,1.509-4.683
				c0.896-3.288,1.612-6.704,2.234-10.034c1.233-6.678,2.097-13.059,2.767-18.531c0.665-5.478,1.123-10.066,1.423-13.271
				c0.275-3.183,0.433-5.001,0.433-5.001L258.927,230.433z"/>
		</g>
	</g>
	<path style="fill:#DBF0FD;" d="M234.077,269.325l20.165,8.488c0,0,3.044-53.061,11.749-79.564
		C238.555,203.947,234.077,269.325,234.077,269.325z"/>
	
		<rect x="272.01" y="293.526" transform="matrix(0.0161 -0.9999 0.9999 0.0161 -49.0373 615.5189)" style="fill:#2F3142;" width="32.446" height="78.3"/>
	<path style="fill:#21232F;" d="M335.209,353.892c0,0,17.213,3.311,28.857-10.881c5.171-6.306,12.202-0.691,11.677,2.964
		c-1.689,4.46-35.708,40.461-38.482,40.059c-6.773-0.988-8.504-15.152-11.639-16.415
		C320.949,367.74,335.209,353.892,335.209,353.892z"/>
	<path style="fill:#2B2D3C;" d="M225.498,322.668c56.619,12.567,111.184,26.33,111.184,26.33l-9.286,24.201
		c-8.256-0.579-67.351-11.753-112.677-17.827C195.273,352.77,184.4,313.55,225.498,322.668z"/>
	<path style="fill:#21232F;" d="M235.847,356.089c0,0-17.03,4.151-29.355-9.455c-5.477-6.045-12.224-0.09-11.518,3.537
		c1.904,4.373,37.645,38.662,40.399,38.123c6.718-1.321,7.749-15.55,10.819-16.966C250.768,369.221,235.847,356.089,235.847,356.089
		z"/>
	<path style="fill:#383B4E;" d="M344.194,319.519c-55.935,15.326-109.759,31.745-109.759,31.745l10.461,23.716
		c8.22-0.981,66.692-15.04,111.667-23.325C375.859,348.1,384.797,308.396,344.194,319.519z"/>
	<path style="fill:#FFFFFF;" d="M326.197,273.832c1.01,15.97,1.215,33.58,1.441,43.251l-78.29-1.256
		c-0.471-13.871-0.022-37.044,1.712-55.149c1.94-20.303,3.952-53.69,8.792-58.708c4.843-5.02,15.623-5.864,17.77-6.563
		c4.625-1.502,16.824-1.089,21.671-0.684c6.131,0.51,18.282,3.384,20.119,7.587C321.249,206.509,325.204,258.147,326.197,273.832z"
		/>
	<path style="fill:#F8B894;" d="M281.839,184.314c0.106-6.57,17.132-8.553,16.263-2.708c-0.597,4.032,0.195,8.738,0.742,11.271
		c0.25,1.144,4.412,2.379,4.412,2.379s-4.427,8.716-13.649,8.582c-9.223-0.134-11.984-8.43-11.984-8.43l4.278-2.559
		C281.9,192.849,281.788,187.6,281.839,184.314z"/>
	<g>
		<path style="fill:#2B2D3C;" d="M260.996,136.364c-0.499,31.111,9.324,37.011,31.242,43.367
			c14.659,4.253,40.901-4.351,43.385-48.963c0.735-13.175-0.901-31.835-11.058-30.659c-6.193-18.073-15.059-14.884-28.201-15.097
			C269.202,84.577,239.015,100.417,260.996,136.364z"/>
		<path style="fill:#E4A386;" d="M256.997,142.604c-0.515,31.969,10.733,45.191,24.783,45.416
			c16.064,0.257,38.072-18.435,38.488-44.399c0.514-31.969-13.367-49.799-30.84-50.078
			C271.957,93.261,257.509,110.635,256.997,142.604z"/>
		<path style="fill:#F8B894;" d="M258.582,140.885c-0.496,30.843,5.773,43.957,22.381,44.225
			c16.614,0.264,37.242-10.026,39.338-43.57c1.924-30.793-14.261-47.729-30.872-47.997
			C272.818,93.275,259.078,110.038,258.582,140.885z"/>
		<g>
			<path style="fill:#2B2D3C;" d="M287.134,92.081c14.052,0.225,30.677,8.307,32.049,22.095c-5.632,5.267-12.488,8.756-20.1,10.627
				c-4.847,1.191-11.699-6.87-17.038-6.954c-7.388-0.12-13.192,7.902-18.765,5.701c-5.042-1.987-8.51-5.31-8.883-10.823
				C263.643,102.933,273.394,91.86,287.134,92.081z"/>
		</g>
		<path style="fill:#F8B894;" d="M328.239,144.124c7.315,3.063,0.409,17.042-7.111,15.685c-3.22-0.58-7.943-0.822-7.863-5.922
			c0.083-5.1,6.048-5.194,6.048-5.194S321.546,141.323,328.239,144.124z"/>
		<path style="fill:#C1A7AB;" d="M323.2,146.256c0,0,3.775-1.383,5.267,1.622c1.872,3.779-4.003,9.56-4.003,9.56
			s3.913-5.694,2.17-9.299C325.524,145.844,323.2,146.256,323.2,146.256z"/>
		<path style="fill:#C1A7AB;" d="M280.022,152.862c1.194,0.018,2.289,0.329,3.163,0.836c-0.456-1.48-1.672-2.552-3.134-2.573
			c-1.459-0.025-2.712,1.006-3.217,2.472C277.727,153.119,278.831,152.84,280.022,152.862z"/>
		<path style="fill:#FDFDFD;" d="M293.903,163.587c0,0-2.071,11.126-12.77,10.956c-10.7-0.17-12.408-11.358-12.408-11.358
			L293.903,163.587z"/>
		<path style="fill:#2B2D3C;" d="M305.077,133.432c-2.156-3.163-6.829-2.99-11.623-1.741c-1.595,0.416-0.847,2.675,0.782,2.436
			c2.942-0.435,6.366-0.376,8.795,2.831C304.023,138.271,306.009,134.8,305.077,133.432z"/>
		<g>
			<path style="fill:#2B2D3C;" d="M318.451,138.605c5.18-19.072-10.555-16.872-10.555-16.872s9.534-17.237,13.002-10.044
				c1.3,2.704,8.347,25.226,1.29,32.863c-0.074,4.724-4.266,8.253-5.728,7.768C314.995,151.831,316.881,144.389,318.451,138.605z"/>
		</g>
		<path style="fill:#2B2D3C;" d="M295.51,145.019c-0.011,0.695,0.54,1.267,1.234,1.277l0,0c0.695,0.011,1.267-0.543,1.278-1.238
			l0.064-4.018c0.011-0.695-0.543-1.264-1.237-1.274l0,0c-0.695-0.014-1.264,0.54-1.274,1.234L295.51,145.019z"/>
		<path style="fill:#2B2D3C;" d="M261.065,132.726c2.259-3.095,6.921-2.769,11.673-1.368c1.582,0.467,0.761,2.704-0.859,2.411
			c-2.927-0.529-6.351-0.583-8.881,2.548C261.963,137.598,260.092,134.061,261.065,132.726z"/>
		<path style="fill:#2B2D3C;" d="M270.256,144.613c-0.011,0.695-0.579,1.249-1.274,1.238l0,0c-0.695-0.015-1.249-0.587-1.238-1.278
			l0.065-4.018c0.011-0.695,0.583-1.249,1.278-1.238l0,0c0.694,0.011,1.245,0.583,1.233,1.278L270.256,144.613z"/>
	</g>
	<g>
		<g>
			<path style="fill:#F8B894;" d="M331.202,246.244c0,0-0.034,0.48-0.097,1.38c-0.071,0.874-0.176,2.155-0.309,3.787
				c-0.287,3.25-0.738,7.873-1.45,13.423c-0.721,5.552-1.675,12.022-3.186,19.014c-0.768,3.499-1.665,7.124-2.915,10.88
				c-0.632,1.881-1.338,3.79-2.269,5.768c-0.458,0.986-0.981,1.993-1.604,3.025c-0.624,1.031-1.335,2.088-2.304,3.182
				c-0.967,1.08-2.184,2.235-3.957,3.188c-0.225,0.117-0.468,0.227-0.705,0.334l-0.359,0.156l-0.181,0.076l-0.302,0.111
				l-0.041,0.013l-0.65,0.206l-1.313,0.413c-1.028,0.275-2.054,0.55-3.077,0.824c-0.912,0.214-1.821,0.428-2.728,0.641
				c-3.602,0.819-7.099,1.544-10.482,2.217c-6.763,1.347-13.058,2.509-18.458,3.49c-5.4,0.958-9.9,1.756-13.05,2.315
				c-3.158,0.543-4.963,0.853-4.963,0.853l-2.067-11.226c0,0,1.778-0.359,4.888-0.988c3.112-0.646,7.557-1.568,12.892-2.676
				c5.326-1.129,11.538-2.464,18.137-3.979c3.297-0.756,6.692-1.565,10.063-2.436c0.833-0.221,1.671-0.444,2.511-0.667
				c0.717-0.209,1.436-0.419,2.157-0.629l1.274-0.441l0.644-0.225l0.04-0.014c0.23-0.083-0.263,0.097-0.222,0.08l-0.026,0.004
				l-0.049,0.014c-0.031,0.01-0.063,0.033-0.086,0.045c-0.171,0.081-0.016-0.009,0.211-0.299c0.484-0.585,1.167-1.784,1.725-3.102
				c0.578-1.325,1.092-2.826,1.556-4.359c0.928-3.081,1.645-6.341,2.244-9.534c1.191-6.406,1.926-12.59,2.455-17.896
				c0.523-5.312,0.826-9.77,1.008-12.879c0.081-1.55,0.145-2.768,0.188-3.598c0.033-0.806,0.05-1.235,0.05-1.235L331.202,246.244z"
				/>
		</g>
	</g>
	<path style="fill:#DBF0FD;" d="M329.097,289.425l-26.011-15.966c0,0,19.861-47.649,12.361-74.519
		C347.503,215.117,329.097,289.425,329.097,289.425z"/>
	<g>
		<path style="fill:#D6A182;" d="M195.269,249.612l-7.458-3.319l-8.673-1.784l3.504-13.455l5.621,0.355l-0.93-4.449
			c0,0-1.403-5.412,0.575-5.73c1.981-0.312,4.246,7.116,6.117,9.646c1.871,2.53,6.743,13.979,6.743,13.979L195.269,249.612z"/>
		<path style="fill:#D6A182;" d="M179.138,244.509c0,0-9.835-1.861-11.091-2.498c-1.256-0.641-1.574-2.52-0.273-2.371
			c1.298,0.152,14.099,1.625,14.099,1.625L179.138,244.509z"/>
		<path style="fill:#D6A182;" d="M180.126,241.544c0,0-14.663-2.588-15.918-3.225c-1.254-0.637-1.572-2.519-0.273-2.367
			c1.298,0.148,17.413,2.045,17.413,2.045L180.126,241.544z"/>
		<path style="fill:#D6A182;" d="M181.944,237.903c0,0-14.661-2.592-15.917-3.229c-1.256-0.637-1.575-2.519-0.275-2.367
			c1.3,0.148,17.414,2.042,17.414,2.042L181.944,237.903z"/>
		<path style="fill:#D6A182;" d="M184.824,234.819c0,0-14.66-2.588-15.916-3.229c-1.256-0.637-1.574-2.516-0.274-2.367
			c1.299,0.152,17.414,2.049,17.414,2.049L184.824,234.819z"/>
	</g>
	<g>
		
			<rect x="278.177" y="294.877" transform="matrix(0.0161 -0.9999 0.9999 0.0161 -51.7724 605.4306)" style="fill:#C6C6C6;" width="7.106" height="68.287"/>
		<polygon style="fill:#DADADA;" points="209.516,331.413 277.795,332.51 264.156,290.424 195.879,289.327 		"/>
	</g>
</g>
<g>
	<g>
		
			<line style="fill:none;stroke:#FFFFFF;stroke-width:1.2031;stroke-linecap:round;stroke-linejoin:round;stroke-miterlimit:10;" x1="389.563" y1="205.738" x2="389.563" y2="221.378"/>
		
			<line style="fill:none;stroke:#FFFFFF;stroke-width:1.2031;stroke-linecap:round;stroke-linejoin:round;stroke-miterlimit:10;" x1="397.383" y1="213.559" x2="381.742" y2="213.559"/>
		
			<line style="fill:none;stroke:#FFFFFF;stroke-width:1.2031;stroke-linecap:round;stroke-linejoin:round;stroke-miterlimit:10;" x1="395.092" y1="208.028" x2="384.034" y2="219.088"/>
		
			<line style="fill:none;stroke:#FFFFFF;stroke-width:1.2031;stroke-linecap:round;stroke-linejoin:round;stroke-miterlimit:10;" x1="395.092" y1="219.088" x2="384.034" y2="208.028"/>
	</g>
	<g>
		<g>
			<g>
				
					<line style="fill:none;stroke:#FFFFFF;stroke-width:0.9023;stroke-linecap:round;stroke-linejoin:round;" x1="353.051" y1="162.316" x2="354.815" y2="162.316"/>
				
					<line style="fill:none;stroke:#FFFFFF;stroke-width:0.9023;stroke-linecap:round;stroke-linejoin:round;stroke-dasharray:2.7485,2.7485;" x1="357.563" y1="162.316" x2="361.686" y2="162.316"/>
				
					<line style="fill:none;stroke:#FFFFFF;stroke-width:0.9023;stroke-linecap:round;stroke-linejoin:round;" x1="363.06" y1="162.316" x2="364.823" y2="162.316"/>
			</g>
		</g>
		<g>
			<g>
				
					<line style="fill:none;stroke:#FFFFFF;stroke-width:0.9023;stroke-linecap:round;stroke-linejoin:round;" x1="357.143" y1="157.665" x2="358.906" y2="157.665"/>
				
					<line style="fill:none;stroke:#FFFFFF;stroke-width:0.9023;stroke-linecap:round;stroke-linejoin:round;stroke-dasharray:2.7491,2.7491;" x1="361.655" y1="157.665" x2="365.779" y2="157.665"/>
				
					<line style="fill:none;stroke:#FFFFFF;stroke-width:0.9023;stroke-linecap:round;stroke-linejoin:round;" x1="367.153" y1="157.665" x2="368.917" y2="157.665"/>
			</g>
		</g>
	</g>
	<g>
		
			<line style="fill:none;stroke:#FFFFFF;stroke-width:1.2031;stroke-linecap:round;stroke-linejoin:round;stroke-miterlimit:10;" x1="384.032" y1="76.15" x2="384.032" y2="91.79"/>
		
			<line style="fill:none;stroke:#FFFFFF;stroke-width:1.2031;stroke-linecap:round;stroke-linejoin:round;stroke-miterlimit:10;" x1="391.852" y1="83.97" x2="376.213" y2="83.97"/>
		
			<line style="fill:none;stroke:#FFFFFF;stroke-width:1.2031;stroke-linecap:round;stroke-linejoin:round;stroke-miterlimit:10;" x1="389.563" y1="78.441" x2="378.503" y2="89.501"/>
		
			<line style="fill:none;stroke:#FFFFFF;stroke-width:1.2031;stroke-linecap:round;stroke-linejoin:round;stroke-miterlimit:10;" x1="389.563" y1="89.501" x2="378.503" y2="78.441"/>
	</g>
	<g>
		
			<line style="fill:none;stroke:#FFFFFF;stroke-width:1.2031;stroke-linecap:round;stroke-linejoin:round;stroke-miterlimit:10;" x1="205.519" y1="31.887" x2="205.519" y2="47.526"/>
		
			<line style="fill:none;stroke:#FFFFFF;stroke-width:1.2031;stroke-linecap:round;stroke-linejoin:round;stroke-miterlimit:10;" x1="213.339" y1="39.707" x2="197.7" y2="39.707"/>
		
			<line style="fill:none;stroke:#FFFFFF;stroke-width:1.2031;stroke-linecap:round;stroke-linejoin:round;stroke-miterlimit:10;" x1="211.048" y1="34.177" x2="199.99" y2="45.236"/>
		
			<line style="fill:none;stroke:#FFFFFF;stroke-width:1.2031;stroke-linecap:round;stroke-linejoin:round;stroke-miterlimit:10;" x1="211.048" y1="45.236" x2="199.99" y2="34.177"/>
	</g>
	<g>
		<g>
			<g>
				
					<line style="fill:none;stroke:#FFFFFF;stroke-width:0.9023;stroke-linecap:round;stroke-linejoin:round;" x1="331.629" y1="44.356" x2="333.392" y2="44.356"/>
				
					<line style="fill:none;stroke:#FFFFFF;stroke-width:0.9023;stroke-linecap:round;stroke-linejoin:round;stroke-dasharray:2.7491,2.7491;" x1="336.141" y1="44.356" x2="340.265" y2="44.356"/>
				
					<line style="fill:none;stroke:#FFFFFF;stroke-width:0.9023;stroke-linecap:round;stroke-linejoin:round;" x1="341.639" y1="44.356" x2="343.403" y2="44.356"/>
			</g>
		</g>
		<g>
			<g>
				
					<line style="fill:none;stroke:#FFFFFF;stroke-width:0.9023;stroke-linecap:round;stroke-linejoin:round;" x1="335.72" y1="39.707" x2="337.483" y2="39.707"/>
				
					<line style="fill:none;stroke:#FFFFFF;stroke-width:0.9023;stroke-linecap:round;stroke-linejoin:round;stroke-dasharray:2.7491,2.7491;" x1="340.233" y1="39.707" x2="344.356" y2="39.707"/>
				
					<line style="fill:none;stroke:#FFFFFF;stroke-width:0.9023;stroke-linecap:round;stroke-linejoin:round;" x1="345.731" y1="39.707" x2="347.494" y2="39.707"/>
			</g>
		</g>
	</g>
	<g>
		
			<line style="fill:none;stroke:#FFFFFF;stroke-width:1.2031;stroke-linecap:round;stroke-linejoin:round;stroke-miterlimit:10;" x1="25.772" y1="202.001" x2="25.772" y2="217.642"/>
		
			<line style="fill:none;stroke:#FFFFFF;stroke-width:1.2031;stroke-linecap:round;stroke-linejoin:round;stroke-miterlimit:10;" x1="17.952" y1="209.822" x2="33.592" y2="209.822"/>
		
			<line style="fill:none;stroke:#FFFFFF;stroke-width:1.2031;stroke-linecap:round;stroke-linejoin:round;stroke-miterlimit:10;" x1="20.24" y1="204.292" x2="31.299" y2="215.351"/>
		
			<line style="fill:none;stroke:#FFFFFF;stroke-width:1.2031;stroke-linecap:round;stroke-linejoin:round;stroke-miterlimit:10;" x1="20.24" y1="215.351" x2="31.299" y2="204.292"/>
	</g>
	<g>
		<g>
			<g>
				
					<line style="fill:none;stroke:#FFFFFF;stroke-width:0.9023;stroke-linecap:round;stroke-linejoin:round;" x1="41.637" y1="164.642" x2="39.874" y2="164.642"/>
				
					<line style="fill:none;stroke:#FFFFFF;stroke-width:0.9023;stroke-linecap:round;stroke-linejoin:round;stroke-dasharray:2.7486,2.7486;" x1="37.125" y1="164.642" x2="33.002" y2="164.642"/>
				
					<line style="fill:none;stroke:#FFFFFF;stroke-width:0.9023;stroke-linecap:round;stroke-linejoin:round;" x1="31.627" y1="164.642" x2="29.865" y2="164.642"/>
			</g>
		</g>
		<g>
			<g>
				
					<line style="fill:none;stroke:#FFFFFF;stroke-width:0.9023;stroke-linecap:round;stroke-linejoin:round;" x1="37.548" y1="159.99" x2="35.784" y2="159.99"/>
				
					<line style="fill:none;stroke:#FFFFFF;stroke-width:0.9023;stroke-linecap:round;stroke-linejoin:round;stroke-dasharray:2.7498,2.7498;" x1="33.034" y1="159.99" x2="28.91" y2="159.99"/>
				
					<line style="fill:none;stroke:#FFFFFF;stroke-width:0.9023;stroke-linecap:round;stroke-linejoin:round;" x1="27.534" y1="159.99" x2="25.772" y2="159.99"/>
			</g>
		</g>
	</g>
	<g>
		
			<line style="fill:none;stroke:#FFFFFF;stroke-width:1.2031;stroke-linecap:round;stroke-linejoin:round;stroke-miterlimit:10;" x1="35.106" y1="76.15" x2="35.106" y2="91.79"/>
		
			<line style="fill:none;stroke:#FFFFFF;stroke-width:1.2031;stroke-linecap:round;stroke-linejoin:round;stroke-miterlimit:10;" x1="27.286" y1="83.97" x2="42.926" y2="83.97"/>
		
			<line style="fill:none;stroke:#FFFFFF;stroke-width:1.2031;stroke-linecap:round;stroke-linejoin:round;stroke-miterlimit:10;" x1="29.574" y1="78.441" x2="40.637" y2="89.501"/>
		
			<line style="fill:none;stroke:#FFFFFF;stroke-width:1.2031;stroke-linecap:round;stroke-linejoin:round;stroke-miterlimit:10;" x1="29.574" y1="89.501" x2="40.637" y2="78.441"/>
	</g>
	<g>
		<g>
			<g>
				
					<line style="fill:none;stroke:#FFFFFF;stroke-width:0.9023;stroke-linecap:round;stroke-linejoin:round;" x1="87.511" y1="44.356" x2="85.748" y2="44.356"/>
				
					<line style="fill:none;stroke:#FFFFFF;stroke-width:0.9023;stroke-linecap:round;stroke-linejoin:round;stroke-dasharray:2.7489,2.7489;" x1="82.999" y1="44.356" x2="78.875" y2="44.356"/>
				
					<line style="fill:none;stroke:#FFFFFF;stroke-width:0.9023;stroke-linecap:round;stroke-linejoin:round;" x1="77.501" y1="44.356" x2="75.738" y2="44.356"/>
			</g>
		</g>
		<g>
			<g>
				
					<line style="fill:none;stroke:#FFFFFF;stroke-width:0.9023;stroke-linecap:round;stroke-linejoin:round;" x1="83.419" y1="39.707" x2="81.657" y2="39.707"/>
				
					<line style="fill:none;stroke:#FFFFFF;stroke-width:0.9023;stroke-linecap:round;stroke-linejoin:round;stroke-dasharray:2.7489,2.7489;" x1="78.908" y1="39.707" x2="74.784" y2="39.707"/>
				
					<line style="fill:none;stroke:#FFFFFF;stroke-width:0.9023;stroke-linecap:round;stroke-linejoin:round;" x1="73.41" y1="39.707" x2="71.647" y2="39.707"/>
			</g>
		</g>
	</g>
</g>
<g>
	
		<rect x="82.606" y="295.278" style="fill:none;stroke:#FFFFFF;stroke-width:1.4215;stroke-linecap:round;stroke-miterlimit:10;" width="34.847" height="5.629"/>
	
		<rect x="82.606" y="238.414" style="fill:none;stroke:#FFFFFF;stroke-width:1.4215;stroke-linecap:round;stroke-miterlimit:10;" width="34.847" height="5.628"/>
	<path style="fill:none;stroke:#FFFFFF;stroke-width:1.4215;stroke-linecap:round;stroke-miterlimit:10;" d="M104.123,270.712
		v-2.102c5.071-2.442,13.049-7.143,13.049-12.542c0-7.913-3.582-12.026-3.582-12.026H85.766c0,0-2.878,4.286-2.878,12.026
		c0,5.399,7.978,10.099,13.048,12.542v2.102c-5.07,2.442-13.048,7.142-13.048,12.541c0,7.913,3.582,12.025,3.582,12.025h27.824
		c0,0,2.878-4.285,2.878-12.025C117.172,277.854,109.194,273.154,104.123,270.712z"/>
	<path style="fill:none;stroke:#FFFFFF;stroke-width:1.4215;stroke-linecap:round;stroke-miterlimit:10;" d="M113.907,257.444
		c0,0.901-6.193,9.307-13.877,9.307s-13.947-8.406-13.947-9.307c0-0.901,6.229-1.631,13.912-1.631S113.907,256.543,113.907,257.444z
		"/>
	<path style="fill:none;stroke:#FFFFFF;stroke-width:1.4215;stroke-linecap:round;stroke-miterlimit:10;" d="M87.042,292.465
		c0-0.901,5.767-9.307,12.92-9.307c7.154,0,12.986,8.406,12.986,9.307H87.042z"/>
	
		<line style="fill:none;stroke:#FFFFFF;stroke-width:1.4215;stroke-linecap:round;stroke-miterlimit:10;stroke-dasharray:3.0703;" x1="100.03" y1="266.75" x2="100.03" y2="283.158"/>
</g>
<g>
	<path style="fill:none;stroke:#FFFFFF;stroke-width:1.2457;stroke-linecap:round;stroke-linejoin:round;stroke-miterlimit:10;" d="
		M83.737,106.974c-11.323,0-20.503,9.179-20.503,20.502c0,14.429,14.015,15.882,14.015,22.923v1.938h14.326v-2.438
		c0-7.059,12.665-7.993,12.665-22.422C104.24,116.153,95.061,106.974,83.737,106.974z"/>
	<path style="fill:none;stroke:#FFFFFF;stroke-width:1.2457;stroke-miterlimit:10;" d="M77.958,163.086
		c0.558,2.359,3.232,4.149,6.454,4.149c3.222,0,5.896-1.79,6.454-4.149H77.958z"/>
	
		<rect x="77.249" y="155.868" style="fill:none;stroke:#FFFFFF;stroke-width:1.2457;stroke-linecap:round;stroke-linejoin:round;stroke-miterlimit:10;" width="14.326" height="3.486"/>
	
		<rect x="76.315" y="159.449" style="fill:none;stroke:#FFFFFF;stroke-width:1.2457;stroke-miterlimit:10;" width="16.194" height="3.426"/>
	
		<rect x="76.315" y="152.442" style="fill:none;stroke:#FFFFFF;stroke-width:1.2457;stroke-linecap:round;stroke-linejoin:round;stroke-miterlimit:10;" width="16.194" height="3.426"/>
	
		<line style="fill:none;stroke:#FFFFFF;stroke-width:1.2457;stroke-linecap:round;stroke-linejoin:round;stroke-miterlimit:10;" x1="83.737" y1="103.08" x2="83.737" y2="96.695"/>
	
		<line style="fill:none;stroke:#FFFFFF;stroke-width:1.2457;stroke-linecap:round;stroke-linejoin:round;stroke-miterlimit:10;" x1="108.393" y1="127.061" x2="114.31" y2="127.061"/>
	
		<line style="fill:none;stroke:#FFFFFF;stroke-width:1.2457;stroke-linecap:round;stroke-linejoin:round;stroke-miterlimit:10;" x1="54.826" y1="127.061" x2="60.743" y2="127.061"/>
	
		<line style="fill:none;stroke:#FFFFFF;stroke-width:1.2457;stroke-linecap:round;stroke-linejoin:round;stroke-miterlimit:10;" x1="97.647" y1="108.686" x2="102.412" y2="103.08"/>
	
		<line style="fill:none;stroke:#FFFFFF;stroke-width:1.2457;stroke-linecap:round;stroke-linejoin:round;stroke-miterlimit:10;" x1="66.349" y1="141.23" x2="60.743" y2="145.902"/>
	
		<line style="fill:none;stroke:#FFFFFF;stroke-width:1.2457;stroke-linecap:round;stroke-linejoin:round;stroke-miterlimit:10;" x1="66.349" y1="110.866" x2="61.989" y2="106.974"/>
	
		<line style="fill:none;stroke:#FFFFFF;stroke-width:1.2457;stroke-linecap:round;stroke-linejoin:round;stroke-miterlimit:10;" x1="101.229" y1="141.23" x2="105.278" y2="145.902"/>
	
		<line style="fill:none;stroke:#FFFFFF;stroke-width:1.2457;stroke-linecap:round;stroke-linejoin:round;stroke-miterlimit:10;" x1="81.609" y1="152.442" x2="78.027" y2="127.061"/>
	
		<line style="fill:none;stroke:#FFFFFF;stroke-width:1.2457;stroke-linecap:round;stroke-linejoin:round;stroke-miterlimit:10;" x1="87.526" y1="152.442" x2="91.108" y2="127.061"/>
	
		<line style="fill:none;stroke:#FFFFFF;stroke-width:1.2457;stroke-linecap:round;stroke-linejoin:round;stroke-miterlimit:10;" x1="78.36" y1="129.415" x2="90.603" y2="129.415"/>
</g>
<g>
	<path style="fill:none;stroke:#FFFFFF;stroke-width:0.9897;stroke-linecap:round;stroke-linejoin:round;stroke-miterlimit:10;" d="
		M149.202,39.899c0-2.409,1.953-4.361,4.362-4.361c2.408,0,4.361,1.953,4.361,4.361"/>
	
		<polyline style="fill:none;stroke:#FFFFFF;stroke-width:0.9897;stroke-linecap:round;stroke-linejoin:round;stroke-miterlimit:10;" points="
		160.857,42.7 173.233,42.7 173.233,100.083 133.822,100.083 133.822,42.7 146.196,42.7 	"/>
	
		<polyline style="fill:none;stroke:#FFFFFF;stroke-width:0.9897;stroke-linecap:round;stroke-linejoin:round;stroke-miterlimit:10;" points="
		160.857,46.326 170.041,46.326 170.041,85.737 157.113,95.511 137.014,95.511 137.014,46.326 146.196,46.326 	"/>
	
		<polygon style="fill:none;stroke:#FFFFFF;stroke-width:0.9897;stroke-linecap:round;stroke-linejoin:round;stroke-miterlimit:10;" points="
		170.041,85.737 157.113,95.511 163.576,83.057 	"/>
	
		<rect x="146.197" y="40.178" style="fill:none;stroke:#FFFFFF;stroke-width:0.9897;stroke-linecap:round;stroke-linejoin:round;stroke-miterlimit:10;" width="14.661" height="7.094"/>
	<path style="fill:none;stroke:#FFFFFF;stroke-width:0.9897;stroke-linecap:round;stroke-linejoin:round;stroke-miterlimit:10;" d="
		M151.7,43.594c0,0.928-0.751,1.681-1.682,1.681c-0.928,0-1.68-0.753-1.68-1.681c0-0.929,0.752-1.682,1.68-1.682
		C150.949,41.912,151.7,42.665,151.7,43.594z"/>
	<path style="fill:none;stroke:#FFFFFF;stroke-width:0.9897;stroke-linecap:round;stroke-linejoin:round;stroke-miterlimit:10;" d="
		M158.649,43.594c0,0.928-0.752,1.681-1.682,1.681c-0.928,0-1.681-0.753-1.681-1.681c0-0.929,0.753-1.682,1.681-1.682
		C157.897,41.912,158.649,42.665,158.649,43.594z"/>
	<g>
		
			<line style="fill:none;stroke:#FFFFFF;stroke-width:0.9897;stroke-miterlimit:10;" x1="142.299" y1="56.258" x2="165.622" y2="56.258"/>
		
			<line style="fill:none;stroke:#FFFFFF;stroke-width:0.9897;stroke-miterlimit:10;" x1="142.299" y1="60.75" x2="155.7" y2="60.75"/>
		
			<line style="fill:none;stroke:#FFFFFF;stroke-width:0.9897;stroke-miterlimit:10;" x1="157.934" y1="60.75" x2="165.622" y2="60.75"/>
		
			<line style="fill:none;stroke:#FFFFFF;stroke-width:0.9897;stroke-miterlimit:10;" x1="142.299" y1="64.823" x2="155.7" y2="64.823"/>
		
			<line style="fill:none;stroke:#FFFFFF;stroke-width:0.9897;stroke-miterlimit:10;" x1="157.934" y1="64.823" x2="165.622" y2="64.823"/>
		
			<line style="fill:none;stroke:#FFFFFF;stroke-width:0.9897;stroke-miterlimit:10;" x1="142.299" y1="68.896" x2="155.7" y2="68.896"/>
		
			<line style="fill:none;stroke:#FFFFFF;stroke-width:0.9897;stroke-miterlimit:10;" x1="157.934" y1="68.896" x2="165.622" y2="68.896"/>
		
			<line style="fill:none;stroke:#FFFFFF;stroke-width:0.9897;stroke-miterlimit:10;" x1="142.299" y1="72.81" x2="155.7" y2="72.81"/>
		
			<line style="fill:none;stroke:#FFFFFF;stroke-width:0.9897;stroke-miterlimit:10;" x1="157.934" y1="72.81" x2="165.622" y2="72.81"/>
		
			<line style="fill:none;stroke:#FFFFFF;stroke-width:0.9897;stroke-miterlimit:10;" x1="142.299" y1="76.883" x2="155.7" y2="76.883"/>
		
			<line style="fill:none;stroke:#FFFFFF;stroke-width:0.9897;stroke-miterlimit:10;" x1="157.934" y1="76.883" x2="165.622" y2="76.883"/>
		
			<line style="fill:none;stroke:#FFFFFF;stroke-width:0.9897;stroke-miterlimit:10;" x1="142.299" y1="80.956" x2="155.7" y2="80.956"/>
		
			<line style="fill:none;stroke:#FFFFFF;stroke-width:0.9897;stroke-miterlimit:10;" x1="157.934" y1="80.956" x2="165.622" y2="80.956"/>
	</g>
</g>
</svg>
